# xmcd
#
# Track frame offsets:
#	150
#	39810
#	61646
#	82833
#	123918
#	155636
#	197800
#	253140
# Disc length: 3909 seconds
# Revision: 1
# Processed by: cddbd v1.5.2PL0 Copyright (c) Steve Scherf et al.
#
# Submitted via: libkcddb 0.10
#
DISCID=5b0f4308
DTITLE=Rat Dog - Rat Dog
DYEAR=1900
DGENRE=
TTITLE0=Good Morning Little Schoolgirl
TTITLE1=Help On The Way
TTITLE2=Slipknot
TTITLE3=Feel Like A Stranger
TTITLE4=She Belongs To Me
TTITLE5=Crazy Fingers
TTITLE6=Lucky Enough
TTITLE7=Tennessee Jed
EXTD=
EXTT0=
EXTT1=
EXTT2=
EXTT3=
EXTT4=
EXTT5=
EXTT6=
EXTT7=
PLAYORDER=
